<?xml version="1.0" encoding="iso-8859-1"?>
<!-- Generator: Adobe Illustrator 18.1.1, SVG Export Plug-In . SVG Version: 6.00 Build 0)  -->
<svg enable-background="new 0 0 512 512" fill="rgb(71, 85, 105)" viewBox="0 0 512 512" xmlns="http://www.w3.org/2000/svg"><path d="m454 0h-396c-11.046 0-20 8.954-20 20v432c0 11.046 8.954 20 20 20h100v20c0 7.043 3.705 13.568 9.755 17.176 6.048 3.608 13.55 3.77 19.748.422l40.497-21.868 40.497 21.868c6.193 3.345 13.696 3.189 19.748-.422 6.05-3.608 9.755-10.133 9.755-17.176v-20h156c11.046 0 20-8.954 20-20v-432c0-11.046-8.954-20-20-20zm-20 352h-276v-312h276zm-316-312v312h-40v-312zm-40 392v-40h80v40zm159.503 15.402c-5.93-3.202-13.076-3.202-19.006 0l-20.497 11.068v-66.47h60v66.47zm60.497-15.402v-40h136v40zm-100-292c0-11.046 8.954-20 20-20h156c26.536 1.056 26.516 38.953 0 40h-156c-11.046 0-20-8.954-20-20z"/></svg>