<svg id="Layer_1" fill="rgb(71, 85, 105)" enable-background="new 0 0 512 512" height="512" viewBox="0 0 512 512" width="512" xmlns="http://www.w3.org/2000/svg"><path d="m294 200c33.084 0 60-26.916 60-60-3.296-79.598-116.716-79.575-120 0 0 33.084 26.916 60 60 60zm0-80c11.028 0 20 8.972 20 20-1.098 26.533-38.906 26.525-40 0 0-11.028 8.972-20 20-20zm198-120h-472c-11.046 0-20 8.954-20 20v472c0 11.046 8.954 20 20 20h472c11.046 0 20-8.954 20-20v-472c0-11.046-8.954-20-20-20zm-20 40v313.833l-96.386-96.003c-7.805-7.774-20.427-7.773-28.231.003l-50.416 50.236-113.523-110.407c-7.832-7.616-20.323-7.539-28.062.171l-115.382 114.989v-272.822zm-432 432v-102.706l129.671-129.229 98.958 96.241-61.746 61.526c-7.824 7.797-7.847 20.46-.05 28.284 7.797 7.826 20.46 7.846 28.284.051l126.386-125.937 110.497 110.06v61.71z"/></svg>