<svg id="Capa_1" enable-background="new 0 0 511.908 511.908" fill="rgb(203, 213, 225)" height="512" viewBox="0 0 511.908 511.908" width="512" xmlns="http://www.w3.org/2000/svg">
    <g>
        <path d="m501.867 114.001c-2.036-16.287-15.361-29.02-31.683-30.277-57.289-4.428-114.903-7.069-172.58-7.928l50.987-63.079c2.604-3.222 2.103-7.944-1.118-10.548-3.222-2.603-7.944-2.104-10.548 1.118l-58.435 72.294c-15.026-.121-30.055-.121-45.081 0l-58.435-72.293c-2.604-3.222-7.328-3.721-10.548-1.118-3.221 2.604-3.722 7.326-1.118 10.548l50.987 63.078c-57.677.859-115.291 3.499-172.578 7.927-16.324 1.257-29.65 13.991-31.686 30.278-13.374 107.133-13.374 215.771 0 322.894 2.036 16.293 15.361 29.031 31.684 30.288 2.786.215 5.573.419 8.36.626l-1.22 22.445c-.459 8.357 4.182 15.965 11.823 19.381 2.663 1.191 5.461 1.771 8.229 1.771 5.178 0 10.247-2.03 14.109-5.887l33.579-33.579c46.359 2.319 92.851 3.485 139.355 3.485 46.492 0 92.993-1.167 139.355-3.486l33.582 33.583c3.86 3.855 8.927 5.884 14.105 5.884 2.768 0 5.567-.58 8.23-1.77 7.641-3.416 12.282-11.024 11.824-19.377l-1.22-22.449c2.786-.207 5.572-.41 8.357-.625 16.325-1.256 29.65-13.995 31.686-30.288v-.001c.044-.336.068-.681.068-1.008 0-4.142-3.358-7.5-7.5-7.5-3.854 0-7.03 2.908-7.452 6.65-1.156 9.25-8.706 16.48-17.956 17.192-141.389 10.929-284.77 10.928-426.16 0-9.247-.711-16.797-7.941-17.953-17.191-13.22-105.89-13.22-213.277 0-319.176 1.156-9.244 8.706-16.47 17.956-17.182 141.39-10.928 284.77-10.928 426.16 0 9.247.712 16.797 7.938 17.953 17.181 11.988 95.999 13.122 193.391 3.371 289.469-.418 4.121 2.583 7.801 6.705 8.219 4.122.416 7.801-2.584 8.219-6.705 9.862-97.2 8.715-195.727-3.413-292.844zm-53.799 377.076c.171 3.117-2.019 4.44-2.968 4.865-.952.424-3.402 1.175-5.609-1.03l-24.048-24.048c10.482-.601 20.956-1.264 31.419-1.983zm-375.656 3.832c-2.21 2.208-4.661 1.458-5.613 1.033-.949-.425-3.139-1.749-2.968-4.869l1.206-22.192c10.465.719 20.938 1.383 31.419 1.983z"/>
        <!-- <path d="m124.558 111.173c-15.853.897-31.779 1.964-47.334 3.171-14.2 1.099-25.789 12.176-27.553 26.337-11.175 89.429-11.175 180.118 0 269.543 1.765 14.165 13.353 25.242 27.554 26.34 46.297 3.578 93.074 5.786 139.027 6.562 13.158.226 26.345.338 39.554.338 38.913 0 77.95-.979 116.487-2.927 12.148-.608 24.49-1.327 36.675-2.137 8.544-.56 17.193-1.178 25.707-1.836 14.2-1.098 25.789-12.175 27.554-26.337 11.175-89.428 11.175-180.117 0-269.543-1.766-14.164-13.354-25.241-27.555-26.339-92.977-7.184-187.207-8.757-280.072-4.675-4.138.182-7.346 3.684-7.164 7.822.182 4.139 3.704 7.341 7.822 7.164 92.262-4.054 185.882-2.492 278.258 4.645 7.124.551 12.938 6.119 13.827 13.242 11.021 88.195 11.021 177.631 0 265.828-.888 7.121-6.702 12.689-13.826 13.24-8.456.653-17.046 1.267-25.539 1.824-12.11.805-24.369 1.519-36.44 2.123-51.287 2.592-103.447 3.459-155.033 2.571-45.656-.771-92.128-2.964-138.126-6.519-7.124-.551-12.938-6.119-13.826-13.242-11.021-88.195-11.021-177.631 0-265.829.887-7.12 6.702-12.688 13.827-13.239 15.453-1.199 31.273-2.258 47.023-3.15 4.135-.234 7.298-3.776 7.064-7.912s-3.791-7.292-7.911-7.065z"/> -->
        <path d="m255.95 402.665c70.146 0 127.213-57.068 127.213-127.213s-57.068-127.213-127.213-127.213-127.213 57.067-127.213 127.213 57.067 127.213 127.213 127.213zm-111.957-119.713h52.605c.471 18.083 2.635 35.462 6.33 51.165-10.255 4.706-19.897 10.798-28.677 18.173-17.304-18.389-28.484-42.597-30.258-69.338zm62.989-80.837c-7.675-3.726-14.941-8.342-21.657-13.794 11.129-9.038 24.014-15.99 38.059-20.257-4.029 5.514-7.741 12.115-11.055 19.752-1.954 4.5-3.737 9.282-5.347 14.299zm48.968-38.876c10.551 0 21.435 11.135 29.862 30.549 1.896 4.368 3.611 9.046 5.156 13.963-11.18 3.664-22.975 5.576-35.019 5.576-12.031 0-23.814-1.908-34.982-5.564 8.764-27.779 22.309-44.524 34.983-44.524zm43.622 24.576c-3.315-7.636-7.027-14.238-11.056-19.752 14.046 4.268 26.932 11.221 38.062 20.26-6.718 5.451-13.985 10.066-21.66 13.791-1.611-5.015-3.393-9.798-5.346-14.299zm-43.623 40.512c13.365 0 26.461-2.074 38.897-6.057 3.147 14.035 5.008 29.521 5.45 45.681h-88.701c.457-16.803 2.432-32.183 5.474-45.676 12.43 3.981 25.521 6.052 38.88 6.052zm44.356 54.625c-.457 16.804-2.432 32.184-5.474 45.677-12.431-3.981-25.521-6.053-38.881-6.053-13.366 0-26.462 2.074-38.896 6.057-3.147-14.036-5.008-29.521-5.45-45.682h88.701zm4.612 65.839c7.674 3.725 14.94 8.341 21.656 13.793-11.129 9.038-24.014 15.989-38.058 20.256 4.029-5.514 7.741-12.115 11.056-19.752 1.954-4.5 3.736-9.282 5.346-14.297zm-48.967 38.874c-10.551 0-21.435-11.135-29.862-30.549-1.896-4.368-3.611-9.045-5.156-13.963 11.178-3.664 22.973-5.577 35.018-5.577 12.031 0 23.814 1.909 34.983 5.565-8.764 27.779-22.309 44.524-34.983 44.524zm-43.622-24.577c3.315 7.637 7.027 14.238 11.056 19.752-14.043-4.267-26.927-11.218-38.054-20.254 6.715-5.453 13.979-10.07 21.653-13.795 1.61 5.015 3.392 9.797 5.345 14.297zm125.324-10.803c-8.782-7.373-18.425-13.464-28.68-18.169 3.695-15.703 5.858-33.083 6.33-51.165h52.605c-1.774 26.74-12.953 50.947-30.255 69.334zm30.254-84.333h-52.605c-.471-18.082-2.635-35.46-6.329-51.163 10.256-4.704 19.9-10.794 28.683-18.166 17.301 18.386 28.478 42.591 30.251 69.329zm-193.659-69.333c8.781 7.374 18.425 13.465 28.68 18.17-3.694 15.703-5.858 33.081-6.329 51.163h-52.605c1.774-26.74 12.952-50.946 30.254-69.333z"/>
    </g>
</svg>