<svg id="Layer_1" enable-background="new 0 0 512 512" height="512" viewBox="0 0 512 512" width="512" xmlns="http://www.w3.org/2000/svg"><path fill="rgba(203, 213, 225)" d="m492 512h-472c-11.046 0-20-8.954-20-20v-472c0-11.046 8.954-20 20-20h472c11.046 0 20 8.954 20 20v472c0 11.046-8.954 20-20 20zm-452-40h432v-432h-432zm317.974-41c-3.168 0-6.347-.751-9.262-2.274l-92.712-48.455-92.712 48.455c-6.743 3.524-14.9 2.917-21.047-1.565s-9.219-12.063-7.926-19.561l17.68-102.472-74.913-72.591c-5.477-5.308-7.459-13.268-5.109-20.523 2.349-7.256 8.62-12.544 16.168-13.635l103.624-14.969 46.321-93.304c7.192-14.719 28.64-14.714 35.828 0l46.321 93.304 103.624 14.969c7.548 1.091 13.819 6.379 16.168 13.635 2.35 7.256.367 15.216-5.109 20.523l-74.913 72.591 17.68 102.472c1.293 7.497-1.778 15.078-7.926 19.561-3.489 2.543-7.627 3.839-11.785 3.839zm-101.974-93.296c3.181 0 6.362.758 9.264 2.274l66.126 34.56-12.599-73.021c-1.124-6.515 1.044-13.163 5.791-17.764l53.258-51.607-73.711-10.647c-6.505-.94-12.132-5.015-15.055-10.901l-33.074-66.621-33.074 66.621c-2.923 5.887-8.55 9.961-15.055 10.901l-73.711 10.647 53.258 51.607c4.747 4.601 6.915 11.249 5.791 17.764l-12.599 73.021 66.126-34.56c2.902-1.516 6.083-2.274 9.264-2.274z"/></svg>